<svg id="myprojects" xmlns="http://www.w3.org/2000/svg" viewBox="0 0 84.08 84.08"><defs><style>.cls-1{fill:#66f;}.cls-2{fill:none;stroke:#fff;stroke-miterlimit:10;stroke-width:2px;}</style></defs><title>myprojects</title><circle class="cls-1" cx="42.04" cy="42.04" r="42.04"/><path class="cls-2" d="M203.58,106.08a7.78,7.78,0,0,0,3-1.09,9.47,9.47,0,0,0,2.57-2.77c1.06-1.45,1.08-1.84,2.27-3.36a6,6,0,0,1,1.88-1.78,5,5,0,0,1,2.17-.59H226.5a3.46,3.46,0,0,1,2.57,2.27v24.49a3.47,3.47,0,0,1-1.48,2.27,3.42,3.42,0,0,1-2.37.49l-32.89,0a3.92,3.92,0,0,1-2.17-1.13,4,4,0,0,1-1.09-2.67V108.15a3.78,3.78,0,0,1,1.88-1.78,3.19,3.19,0,0,1,1.28-.2Z" transform="translate(-167.02 -69.05)"/><path class="cls-2" d="M211.38,98.87H192.61a3.08,3.08,0,0,0-1.81.51,3.41,3.41,0,0,0-1.36,2.72v5.48" transform="translate(-167.02 -69.05)"/></svg>